<?xml version="1.0" encoding="utf-8"?>
<!-- Generator: Adobe Illustrator 22.1.0, SVG Export Plug-In . SVG Version: 6.00 Build 0)  -->
<svg version="1.1" id="Layer_1" xmlns="http://www.w3.org/2000/svg" xmlns:xlink="http://www.w3.org/1999/xlink" x="0px" y="0px"
	 viewBox="0 0 520.7 290" style="enable-background:new 0 0 520.7 290;" xml:space="preserve">
<style type="text/css">
	.st14{fill:#BDCCD4;}
</style>
<path class="st14" d="M343.3,198.3c0,9.7-1.7,18.8-4.6,26.9c-5-3.9-8-6.5-8-6.6c-0.1-0.3-36-20-54.6-20.8H276
	c-1-0.1-2.1-0.5-2.7-1.3c-4.5-5.7-1.1-20.2,3.5-24.2c5-4.5,10.2-7,15.4-8.1c6.7-1.5,13.3-0.8,19.3,1c13.6,4,24,13.5,24.4,14.2
	c2.2,1,3.7,0,4.7-2.4C342.3,183.7,343.3,190.8,343.3,198.3z"/>
</svg>
