<?xml version="1.0" encoding="utf-8"?>
<!-- Generator: Adobe Illustrator 22.1.0, SVG Export Plug-In . SVG Version: 6.00 Build 0)  -->
<svg version="1.1" id="Layer_1" xmlns="http://www.w3.org/2000/svg" xmlns:xlink="http://www.w3.org/1999/xlink" x="0px" y="0px"
	 viewBox="0 0 520.7 290" style="enable-background:new 0 0 520.7 290;" xml:space="preserve">
<style type="text/css">
	.st7{fill:#BDCCD4;}
</style>
<path class="st7" d="M247.6,196.7c-0.6,0.7-1.5,1.2-2.5,1.2c-0.1,0-0.2,0-0.3,0c-18.7,0.8-54.6,20.4-54.6,20.8
	c0,0.1-4.7,4.1-12.1,9.7c-2-7-3.1-14.6-3.1-22.6c0-10.5,1.9-20.4,5.3-29c1,2.6,2.6,3.7,4.8,2.7c0.5-0.8,10.8-10.2,24.4-14.2
	c6-1.8,12.6-2.5,19.3-1c5.2,1.1,10.4,3.6,15.4,8.1C248.8,176.4,252.3,191.1,247.6,196.7z"/>
</svg>
